<?xml version="1.0" encoding="utf-8" standalone="no"?>
<!DOCTYPE svg PUBLIC "-//W3C//DTD SVG 1.1//EN"
  "http://www.w3.org/Graphics/SVG/1.1/DTD/svg11.dtd">
<!-- Created with matplotlib (https://matplotlib.org/) -->
<svg height="341.28pt" version="1.1" viewBox="0 0 460.8 341.28" width="460.8pt" xmlns="http://www.w3.org/2000/svg" xmlns:xlink="http://www.w3.org/1999/xlink">
 <defs>
  <style type="text/css">
*{stroke-linecap:butt;stroke-linejoin:round;}
  </style>
 </defs>
 <g id="figure_1">
  <g id="patch_1">
   <path d="M 0 341.28 
L 460.8 341.28 
L 460.8 0 
L 0 0 
z
" style="fill:#ffffff;"/>
  </g>
  <g id="axes_1">
   <g id="patch_2">
    <path d="M 57.6 303.7392 
L 414.72 303.7392 
L 414.72 40.9536 
L 57.6 40.9536 
z
" style="fill:#ffffff;"/>
   </g>
   <g id="matplotlib.axis_1">
    <g id="xtick_1">
     <g id="line2d_1">
      <defs>
       <path d="M 0 0 
L 0 3.5 
" id="m48c97fe5e9" style="stroke:#000000;stroke-width:0.8;"/>
      </defs>
      <g>
       <use style="stroke:#000000;stroke-width:0.8;" x="95.801832" xlink:href="#m48c97fe5e9" y="303.7392"/>
      </g>
     </g>
     <g id="text_1">
      <!-- 20 -->
      <defs>
       <path d="M 19.1875 8.296875 
L 53.609375 8.296875 
L 53.609375 0 
L 7.328125 0 
L 7.328125 8.296875 
Q 12.9375 14.109375 22.625 23.890625 
Q 32.328125 33.6875 34.8125 36.53125 
Q 39.546875 41.84375 41.421875 45.53125 
Q 43.3125 49.21875 43.3125 52.78125 
Q 43.3125 58.59375 39.234375 62.25 
Q 35.15625 65.921875 28.609375 65.921875 
Q 23.96875 65.921875 18.8125 64.3125 
Q 13.671875 62.703125 7.8125 59.421875 
L 7.8125 69.390625 
Q 13.765625 71.78125 18.9375 73 
Q 24.125 74.21875 28.421875 74.21875 
Q 39.75 74.21875 46.484375 68.546875 
Q 53.21875 62.890625 53.21875 53.421875 
Q 53.21875 48.921875 51.53125 44.890625 
Q 49.859375 40.875 45.40625 35.40625 
Q 44.1875 33.984375 37.640625 27.21875 
Q 31.109375 20.453125 19.1875 8.296875 
z
" id="DejaVuSans-50"/>
       <path d="M 31.78125 66.40625 
Q 24.171875 66.40625 20.328125 58.90625 
Q 16.5 51.421875 16.5 36.375 
Q 16.5 21.390625 20.328125 13.890625 
Q 24.171875 6.390625 31.78125 6.390625 
Q 39.453125 6.390625 43.28125 13.890625 
Q 47.125 21.390625 47.125 36.375 
Q 47.125 51.421875 43.28125 58.90625 
Q 39.453125 66.40625 31.78125 66.40625 
z
M 31.78125 74.21875 
Q 44.046875 74.21875 50.515625 64.515625 
Q 56.984375 54.828125 56.984375 36.375 
Q 56.984375 17.96875 50.515625 8.265625 
Q 44.046875 -1.421875 31.78125 -1.421875 
Q 19.53125 -1.421875 13.0625 8.265625 
Q 6.59375 17.96875 6.59375 36.375 
Q 6.59375 54.828125 13.0625 64.515625 
Q 19.53125 74.21875 31.78125 74.21875 
z
" id="DejaVuSans-48"/>
      </defs>
      <g transform="translate(89.439332 318.337638)scale(0.1 -0.1)">
       <use xlink:href="#DejaVuSans-50"/>
       <use x="63.623047" xlink:href="#DejaVuSans-48"/>
      </g>
     </g>
    </g>
    <g id="xtick_2">
     <g id="line2d_2">
      <g>
       <use style="stroke:#000000;stroke-width:0.8;" x="156.827122" xlink:href="#m48c97fe5e9" y="303.7392"/>
      </g>
     </g>
     <g id="text_2">
      <!-- 40 -->
      <defs>
       <path d="M 37.796875 64.3125 
L 12.890625 25.390625 
L 37.796875 25.390625 
z
M 35.203125 72.90625 
L 47.609375 72.90625 
L 47.609375 25.390625 
L 58.015625 25.390625 
L 58.015625 17.1875 
L 47.609375 17.1875 
L 47.609375 0 
L 37.796875 0 
L 37.796875 17.1875 
L 4.890625 17.1875 
L 4.890625 26.703125 
z
" id="DejaVuSans-52"/>
      </defs>
      <g transform="translate(150.464622 318.337638)scale(0.1 -0.1)">
       <use xlink:href="#DejaVuSans-52"/>
       <use x="63.623047" xlink:href="#DejaVuSans-48"/>
      </g>
     </g>
    </g>
    <g id="xtick_3">
     <g id="line2d_3">
      <g>
       <use style="stroke:#000000;stroke-width:0.8;" x="217.852413" xlink:href="#m48c97fe5e9" y="303.7392"/>
      </g>
     </g>
     <g id="text_3">
      <!-- 60 -->
      <defs>
       <path d="M 33.015625 40.375 
Q 26.375 40.375 22.484375 35.828125 
Q 18.609375 31.296875 18.609375 23.390625 
Q 18.609375 15.53125 22.484375 10.953125 
Q 26.375 6.390625 33.015625 6.390625 
Q 39.65625 6.390625 43.53125 10.953125 
Q 47.40625 15.53125 47.40625 23.390625 
Q 47.40625 31.296875 43.53125 35.828125 
Q 39.65625 40.375 33.015625 40.375 
z
M 52.59375 71.296875 
L 52.59375 62.3125 
Q 48.875 64.0625 45.09375 64.984375 
Q 41.3125 65.921875 37.59375 65.921875 
Q 27.828125 65.921875 22.671875 59.328125 
Q 17.53125 52.734375 16.796875 39.40625 
Q 19.671875 43.65625 24.015625 45.921875 
Q 28.375 48.1875 33.59375 48.1875 
Q 44.578125 48.1875 50.953125 41.515625 
Q 57.328125 34.859375 57.328125 23.390625 
Q 57.328125 12.15625 50.6875 5.359375 
Q 44.046875 -1.421875 33.015625 -1.421875 
Q 20.359375 -1.421875 13.671875 8.265625 
Q 6.984375 17.96875 6.984375 36.375 
Q 6.984375 53.65625 15.1875 63.9375 
Q 23.390625 74.21875 37.203125 74.21875 
Q 40.921875 74.21875 44.703125 73.484375 
Q 48.484375 72.75 52.59375 71.296875 
z
" id="DejaVuSans-54"/>
      </defs>
      <g transform="translate(211.489913 318.337638)scale(0.1 -0.1)">
       <use xlink:href="#DejaVuSans-54"/>
       <use x="63.623047" xlink:href="#DejaVuSans-48"/>
      </g>
     </g>
    </g>
    <g id="xtick_4">
     <g id="line2d_4">
      <g>
       <use style="stroke:#000000;stroke-width:0.8;" x="278.877703" xlink:href="#m48c97fe5e9" y="303.7392"/>
      </g>
     </g>
     <g id="text_4">
      <!-- 80 -->
      <defs>
       <path d="M 31.78125 34.625 
Q 24.75 34.625 20.71875 30.859375 
Q 16.703125 27.09375 16.703125 20.515625 
Q 16.703125 13.921875 20.71875 10.15625 
Q 24.75 6.390625 31.78125 6.390625 
Q 38.8125 6.390625 42.859375 10.171875 
Q 46.921875 13.96875 46.921875 20.515625 
Q 46.921875 27.09375 42.890625 30.859375 
Q 38.875 34.625 31.78125 34.625 
z
M 21.921875 38.8125 
Q 15.578125 40.375 12.03125 44.71875 
Q 8.5 49.078125 8.5 55.328125 
Q 8.5 64.0625 14.71875 69.140625 
Q 20.953125 74.21875 31.78125 74.21875 
Q 42.671875 74.21875 48.875 69.140625 
Q 55.078125 64.0625 55.078125 55.328125 
Q 55.078125 49.078125 51.53125 44.71875 
Q 48 40.375 41.703125 38.8125 
Q 48.828125 37.15625 52.796875 32.3125 
Q 56.78125 27.484375 56.78125 20.515625 
Q 56.78125 9.90625 50.3125 4.234375 
Q 43.84375 -1.421875 31.78125 -1.421875 
Q 19.734375 -1.421875 13.25 4.234375 
Q 6.78125 9.90625 6.78125 20.515625 
Q 6.78125 27.484375 10.78125 32.3125 
Q 14.796875 37.15625 21.921875 38.8125 
z
M 18.3125 54.390625 
Q 18.3125 48.734375 21.84375 45.5625 
Q 25.390625 42.390625 31.78125 42.390625 
Q 38.140625 42.390625 41.71875 45.5625 
Q 45.3125 48.734375 45.3125 54.390625 
Q 45.3125 60.0625 41.71875 63.234375 
Q 38.140625 66.40625 31.78125 66.40625 
Q 25.390625 66.40625 21.84375 63.234375 
Q 18.3125 60.0625 18.3125 54.390625 
z
" id="DejaVuSans-56"/>
      </defs>
      <g transform="translate(272.515203 318.337638)scale(0.1 -0.1)">
       <use xlink:href="#DejaVuSans-56"/>
       <use x="63.623047" xlink:href="#DejaVuSans-48"/>
      </g>
     </g>
    </g>
    <g id="xtick_5">
     <g id="line2d_5">
      <g>
       <use style="stroke:#000000;stroke-width:0.8;" x="339.902994" xlink:href="#m48c97fe5e9" y="303.7392"/>
      </g>
     </g>
     <g id="text_5">
      <!-- 100 -->
      <defs>
       <path d="M 12.40625 8.296875 
L 28.515625 8.296875 
L 28.515625 63.921875 
L 10.984375 60.40625 
L 10.984375 69.390625 
L 28.421875 72.90625 
L 38.28125 72.90625 
L 38.28125 8.296875 
L 54.390625 8.296875 
L 54.390625 0 
L 12.40625 0 
z
" id="DejaVuSans-49"/>
      </defs>
      <g transform="translate(330.359244 318.337638)scale(0.1 -0.1)">
       <use xlink:href="#DejaVuSans-49"/>
       <use x="63.623047" xlink:href="#DejaVuSans-48"/>
       <use x="127.246094" xlink:href="#DejaVuSans-48"/>
      </g>
     </g>
    </g>
    <g id="xtick_6">
     <g id="line2d_6">
      <g>
       <use style="stroke:#000000;stroke-width:0.8;" x="400.928284" xlink:href="#m48c97fe5e9" y="303.7392"/>
      </g>
     </g>
     <g id="text_6">
      <!-- 120 -->
      <g transform="translate(391.384534 318.337638)scale(0.1 -0.1)">
       <use xlink:href="#DejaVuSans-49"/>
       <use x="63.623047" xlink:href="#DejaVuSans-50"/>
       <use x="127.246094" xlink:href="#DejaVuSans-48"/>
      </g>
     </g>
    </g>
    <g id="text_7">
     <!-- Time -->
     <defs>
      <path d="M -0.296875 72.90625 
L 61.375 72.90625 
L 61.375 64.59375 
L 35.5 64.59375 
L 35.5 0 
L 25.59375 0 
L 25.59375 64.59375 
L -0.296875 64.59375 
z
" id="DejaVuSans-84"/>
      <path d="M 9.421875 54.6875 
L 18.40625 54.6875 
L 18.40625 0 
L 9.421875 0 
z
M 9.421875 75.984375 
L 18.40625 75.984375 
L 18.40625 64.59375 
L 9.421875 64.59375 
z
" id="DejaVuSans-105"/>
      <path d="M 52 44.1875 
Q 55.375 50.25 60.0625 53.125 
Q 64.75 56 71.09375 56 
Q 79.640625 56 84.28125 50.015625 
Q 88.921875 44.046875 88.921875 33.015625 
L 88.921875 0 
L 79.890625 0 
L 79.890625 32.71875 
Q 79.890625 40.578125 77.09375 44.375 
Q 74.3125 48.1875 68.609375 48.1875 
Q 61.625 48.1875 57.5625 43.546875 
Q 53.515625 38.921875 53.515625 30.90625 
L 53.515625 0 
L 44.484375 0 
L 44.484375 32.71875 
Q 44.484375 40.625 41.703125 44.40625 
Q 38.921875 48.1875 33.109375 48.1875 
Q 26.21875 48.1875 22.15625 43.53125 
Q 18.109375 38.875 18.109375 30.90625 
L 18.109375 0 
L 9.078125 0 
L 9.078125 54.6875 
L 18.109375 54.6875 
L 18.109375 46.1875 
Q 21.1875 51.21875 25.484375 53.609375 
Q 29.78125 56 35.6875 56 
Q 41.65625 56 45.828125 52.96875 
Q 50 49.953125 52 44.1875 
z
" id="DejaVuSans-109"/>
      <path d="M 56.203125 29.59375 
L 56.203125 25.203125 
L 14.890625 25.203125 
Q 15.484375 15.921875 20.484375 11.0625 
Q 25.484375 6.203125 34.421875 6.203125 
Q 39.59375 6.203125 44.453125 7.46875 
Q 49.3125 8.734375 54.109375 11.28125 
L 54.109375 2.78125 
Q 49.265625 0.734375 44.1875 -0.34375 
Q 39.109375 -1.421875 33.890625 -1.421875 
Q 20.796875 -1.421875 13.15625 6.1875 
Q 5.515625 13.8125 5.515625 26.8125 
Q 5.515625 40.234375 12.765625 48.109375 
Q 20.015625 56 32.328125 56 
Q 43.359375 56 49.78125 48.890625 
Q 56.203125 41.796875 56.203125 29.59375 
z
M 47.21875 32.234375 
Q 47.125 39.59375 43.09375 43.984375 
Q 39.0625 48.390625 32.421875 48.390625 
Q 24.90625 48.390625 20.390625 44.140625 
Q 15.875 39.890625 15.1875 32.171875 
z
" id="DejaVuSans-101"/>
     </defs>
     <g transform="translate(218.322 335.359075)scale(0.144 -0.144)">
      <use xlink:href="#DejaVuSans-84"/>
      <use x="61.037109" xlink:href="#DejaVuSans-105"/>
      <use x="88.820312" xlink:href="#DejaVuSans-109"/>
      <use x="186.232422" xlink:href="#DejaVuSans-101"/>
     </g>
    </g>
   </g>
   <g id="matplotlib.axis_2">
    <g id="ytick_1">
     <g id="line2d_7">
      <defs>
       <path d="M 0 0 
L -3.5 0 
" id="m739e0964cd" style="stroke:#000000;stroke-width:0.8;"/>
      </defs>
      <g>
       <use style="stroke:#000000;stroke-width:0.8;" x="57.6" xlink:href="#m739e0964cd" y="290.577489"/>
      </g>
     </g>
     <g id="text_8">
      <!-- 0.60 -->
      <defs>
       <path d="M 10.6875 12.40625 
L 21 12.40625 
L 21 0 
L 10.6875 0 
z
" id="DejaVuSans-46"/>
      </defs>
      <g transform="translate(28.334375 294.376708)scale(0.1 -0.1)">
       <use xlink:href="#DejaVuSans-48"/>
       <use x="63.623047" xlink:href="#DejaVuSans-46"/>
       <use x="95.410156" xlink:href="#DejaVuSans-54"/>
       <use x="159.033203" xlink:href="#DejaVuSans-48"/>
      </g>
     </g>
    </g>
    <g id="ytick_2">
     <g id="line2d_8">
      <g>
       <use style="stroke:#000000;stroke-width:0.8;" x="57.6" xlink:href="#m739e0964cd" y="258.889649"/>
      </g>
     </g>
     <g id="text_9">
      <!-- 0.65 -->
      <defs>
       <path d="M 10.796875 72.90625 
L 49.515625 72.90625 
L 49.515625 64.59375 
L 19.828125 64.59375 
L 19.828125 46.734375 
Q 21.96875 47.46875 24.109375 47.828125 
Q 26.265625 48.1875 28.421875 48.1875 
Q 40.625 48.1875 47.75 41.5 
Q 54.890625 34.8125 54.890625 23.390625 
Q 54.890625 11.625 47.5625 5.09375 
Q 40.234375 -1.421875 26.90625 -1.421875 
Q 22.3125 -1.421875 17.546875 -0.640625 
Q 12.796875 0.140625 7.71875 1.703125 
L 7.71875 11.625 
Q 12.109375 9.234375 16.796875 8.0625 
Q 21.484375 6.890625 26.703125 6.890625 
Q 35.15625 6.890625 40.078125 11.328125 
Q 45.015625 15.765625 45.015625 23.390625 
Q 45.015625 31 40.078125 35.4375 
Q 35.15625 39.890625 26.703125 39.890625 
Q 22.75 39.890625 18.8125 39.015625 
Q 14.890625 38.140625 10.796875 36.28125 
z
" id="DejaVuSans-53"/>
      </defs>
      <g transform="translate(28.334375 262.688867)scale(0.1 -0.1)">
       <use xlink:href="#DejaVuSans-48"/>
       <use x="63.623047" xlink:href="#DejaVuSans-46"/>
       <use x="95.410156" xlink:href="#DejaVuSans-54"/>
       <use x="159.033203" xlink:href="#DejaVuSans-53"/>
      </g>
     </g>
    </g>
    <g id="ytick_3">
     <g id="line2d_9">
      <g>
       <use style="stroke:#000000;stroke-width:0.8;" x="57.6" xlink:href="#m739e0964cd" y="227.201808"/>
      </g>
     </g>
     <g id="text_10">
      <!-- 0.70 -->
      <defs>
       <path d="M 8.203125 72.90625 
L 55.078125 72.90625 
L 55.078125 68.703125 
L 28.609375 0 
L 18.3125 0 
L 43.21875 64.59375 
L 8.203125 64.59375 
z
" id="DejaVuSans-55"/>
      </defs>
      <g transform="translate(28.334375 231.001027)scale(0.1 -0.1)">
       <use xlink:href="#DejaVuSans-48"/>
       <use x="63.623047" xlink:href="#DejaVuSans-46"/>
       <use x="95.410156" xlink:href="#DejaVuSans-55"/>
       <use x="159.033203" xlink:href="#DejaVuSans-48"/>
      </g>
     </g>
    </g>
    <g id="ytick_4">
     <g id="line2d_10">
      <g>
       <use style="stroke:#000000;stroke-width:0.8;" x="57.6" xlink:href="#m739e0964cd" y="195.513968"/>
      </g>
     </g>
     <g id="text_11">
      <!-- 0.75 -->
      <g transform="translate(28.334375 199.313187)scale(0.1 -0.1)">
       <use xlink:href="#DejaVuSans-48"/>
       <use x="63.623047" xlink:href="#DejaVuSans-46"/>
       <use x="95.410156" xlink:href="#DejaVuSans-55"/>
       <use x="159.033203" xlink:href="#DejaVuSans-53"/>
      </g>
     </g>
    </g>
    <g id="ytick_5">
     <g id="line2d_11">
      <g>
       <use style="stroke:#000000;stroke-width:0.8;" x="57.6" xlink:href="#m739e0964cd" y="163.826128"/>
      </g>
     </g>
     <g id="text_12">
      <!-- 0.80 -->
      <g transform="translate(28.334375 167.625346)scale(0.1 -0.1)">
       <use xlink:href="#DejaVuSans-48"/>
       <use x="63.623047" xlink:href="#DejaVuSans-46"/>
       <use x="95.410156" xlink:href="#DejaVuSans-56"/>
       <use x="159.033203" xlink:href="#DejaVuSans-48"/>
      </g>
     </g>
    </g>
    <g id="ytick_6">
     <g id="line2d_12">
      <g>
       <use style="stroke:#000000;stroke-width:0.8;" x="57.6" xlink:href="#m739e0964cd" y="132.138287"/>
      </g>
     </g>
     <g id="text_13">
      <!-- 0.85 -->
      <g transform="translate(28.334375 135.937506)scale(0.1 -0.1)">
       <use xlink:href="#DejaVuSans-48"/>
       <use x="63.623047" xlink:href="#DejaVuSans-46"/>
       <use x="95.410156" xlink:href="#DejaVuSans-56"/>
       <use x="159.033203" xlink:href="#DejaVuSans-53"/>
      </g>
     </g>
    </g>
    <g id="ytick_7">
     <g id="line2d_13">
      <g>
       <use style="stroke:#000000;stroke-width:0.8;" x="57.6" xlink:href="#m739e0964cd" y="100.450447"/>
      </g>
     </g>
     <g id="text_14">
      <!-- 0.90 -->
      <defs>
       <path d="M 10.984375 1.515625 
L 10.984375 10.5 
Q 14.703125 8.734375 18.5 7.8125 
Q 22.3125 6.890625 25.984375 6.890625 
Q 35.75 6.890625 40.890625 13.453125 
Q 46.046875 20.015625 46.78125 33.40625 
Q 43.953125 29.203125 39.59375 26.953125 
Q 35.25 24.703125 29.984375 24.703125 
Q 19.046875 24.703125 12.671875 31.3125 
Q 6.296875 37.9375 6.296875 49.421875 
Q 6.296875 60.640625 12.9375 67.421875 
Q 19.578125 74.21875 30.609375 74.21875 
Q 43.265625 74.21875 49.921875 64.515625 
Q 56.59375 54.828125 56.59375 36.375 
Q 56.59375 19.140625 48.40625 8.859375 
Q 40.234375 -1.421875 26.421875 -1.421875 
Q 22.703125 -1.421875 18.890625 -0.6875 
Q 15.09375 0.046875 10.984375 1.515625 
z
M 30.609375 32.421875 
Q 37.25 32.421875 41.125 36.953125 
Q 45.015625 41.5 45.015625 49.421875 
Q 45.015625 57.28125 41.125 61.84375 
Q 37.25 66.40625 30.609375 66.40625 
Q 23.96875 66.40625 20.09375 61.84375 
Q 16.21875 57.28125 16.21875 49.421875 
Q 16.21875 41.5 20.09375 36.953125 
Q 23.96875 32.421875 30.609375 32.421875 
z
" id="DejaVuSans-57"/>
      </defs>
      <g transform="translate(28.334375 104.249666)scale(0.1 -0.1)">
       <use xlink:href="#DejaVuSans-48"/>
       <use x="63.623047" xlink:href="#DejaVuSans-46"/>
       <use x="95.410156" xlink:href="#DejaVuSans-57"/>
       <use x="159.033203" xlink:href="#DejaVuSans-48"/>
      </g>
     </g>
    </g>
    <g id="ytick_8">
     <g id="line2d_14">
      <g>
       <use style="stroke:#000000;stroke-width:0.8;" x="57.6" xlink:href="#m739e0964cd" y="68.762607"/>
      </g>
     </g>
     <g id="text_15">
      <!-- 0.95 -->
      <g transform="translate(28.334375 72.561826)scale(0.1 -0.1)">
       <use xlink:href="#DejaVuSans-48"/>
       <use x="63.623047" xlink:href="#DejaVuSans-46"/>
       <use x="95.410156" xlink:href="#DejaVuSans-57"/>
       <use x="159.033203" xlink:href="#DejaVuSans-53"/>
      </g>
     </g>
    </g>
    <g id="text_16">
     <!-- Alignment -->
     <defs>
      <path d="M 34.1875 63.1875 
L 20.796875 26.90625 
L 47.609375 26.90625 
z
M 28.609375 72.90625 
L 39.796875 72.90625 
L 67.578125 0 
L 57.328125 0 
L 50.6875 18.703125 
L 17.828125 18.703125 
L 11.1875 0 
L 0.78125 0 
z
" id="DejaVuSans-65"/>
      <path d="M 9.421875 75.984375 
L 18.40625 75.984375 
L 18.40625 0 
L 9.421875 0 
z
" id="DejaVuSans-108"/>
      <path d="M 45.40625 27.984375 
Q 45.40625 37.75 41.375 43.109375 
Q 37.359375 48.484375 30.078125 48.484375 
Q 22.859375 48.484375 18.828125 43.109375 
Q 14.796875 37.75 14.796875 27.984375 
Q 14.796875 18.265625 18.828125 12.890625 
Q 22.859375 7.515625 30.078125 7.515625 
Q 37.359375 7.515625 41.375 12.890625 
Q 45.40625 18.265625 45.40625 27.984375 
z
M 54.390625 6.78125 
Q 54.390625 -7.171875 48.1875 -13.984375 
Q 42 -20.796875 29.203125 -20.796875 
Q 24.46875 -20.796875 20.265625 -20.09375 
Q 16.0625 -19.390625 12.109375 -17.921875 
L 12.109375 -9.1875 
Q 16.0625 -11.328125 19.921875 -12.34375 
Q 23.78125 -13.375 27.78125 -13.375 
Q 36.625 -13.375 41.015625 -8.765625 
Q 45.40625 -4.15625 45.40625 5.171875 
L 45.40625 9.625 
Q 42.625 4.78125 38.28125 2.390625 
Q 33.9375 0 27.875 0 
Q 17.828125 0 11.671875 7.65625 
Q 5.515625 15.328125 5.515625 27.984375 
Q 5.515625 40.671875 11.671875 48.328125 
Q 17.828125 56 27.875 56 
Q 33.9375 56 38.28125 53.609375 
Q 42.625 51.21875 45.40625 46.390625 
L 45.40625 54.6875 
L 54.390625 54.6875 
z
" id="DejaVuSans-103"/>
      <path d="M 54.890625 33.015625 
L 54.890625 0 
L 45.90625 0 
L 45.90625 32.71875 
Q 45.90625 40.484375 42.875 44.328125 
Q 39.84375 48.1875 33.796875 48.1875 
Q 26.515625 48.1875 22.3125 43.546875 
Q 18.109375 38.921875 18.109375 30.90625 
L 18.109375 0 
L 9.078125 0 
L 9.078125 54.6875 
L 18.109375 54.6875 
L 18.109375 46.1875 
Q 21.34375 51.125 25.703125 53.5625 
Q 30.078125 56 35.796875 56 
Q 45.21875 56 50.046875 50.171875 
Q 54.890625 44.34375 54.890625 33.015625 
z
" id="DejaVuSans-110"/>
      <path d="M 18.3125 70.21875 
L 18.3125 54.6875 
L 36.8125 54.6875 
L 36.8125 47.703125 
L 18.3125 47.703125 
L 18.3125 18.015625 
Q 18.3125 11.328125 20.140625 9.421875 
Q 21.96875 7.515625 27.59375 7.515625 
L 36.8125 7.515625 
L 36.8125 0 
L 27.59375 0 
Q 17.1875 0 13.234375 3.875 
Q 9.28125 7.765625 9.28125 18.015625 
L 9.28125 47.703125 
L 2.6875 47.703125 
L 2.6875 54.6875 
L 9.28125 54.6875 
L 9.28125 70.21875 
z
" id="DejaVuSans-116"/>
     </defs>
     <g transform="translate(21.339625 209.23515)rotate(-90)scale(0.144 -0.144)">
      <use xlink:href="#DejaVuSans-65"/>
      <use x="68.408203" xlink:href="#DejaVuSans-108"/>
      <use x="96.191406" xlink:href="#DejaVuSans-105"/>
      <use x="123.974609" xlink:href="#DejaVuSans-103"/>
      <use x="187.451172" xlink:href="#DejaVuSans-110"/>
      <use x="250.830078" xlink:href="#DejaVuSans-109"/>
      <use x="348.242188" xlink:href="#DejaVuSans-101"/>
      <use x="409.765625" xlink:href="#DejaVuSans-110"/>
      <use x="473.144531" xlink:href="#DejaVuSans-116"/>
     </g>
    </g>
   </g>
   <g id="line2d_15">
    <defs>
     <path d="M 0 1.5 
C 0.397805 1.5 0.77937 1.341951 1.06066 1.06066 
C 1.341951 0.77937 1.5 0.397805 1.5 0 
C 1.5 -0.397805 1.341951 -0.77937 1.06066 -1.06066 
C 0.77937 -1.341951 0.397805 -1.5 0 -1.5 
C -0.397805 -1.5 -0.77937 -1.341951 -1.06066 -1.06066 
C -1.341951 -0.77937 -1.5 -0.397805 -1.5 0 
C -1.5 0.397805 -1.341951 0.77937 -1.06066 1.06066 
C -0.77937 1.341951 -0.397805 1.5 0 1.5 
z
" id="mc563d43ac5" style="stroke:#1f77b4;"/>
    </defs>
    <g clip-path="url(#p0c88c3c4ec)">
     <use style="fill:#1f77b4;stroke:#1f77b4;" x="73.832727" xlink:href="#mc563d43ac5" y="234.669615"/>
     <use style="fill:#1f77b4;stroke:#1f77b4;" x="76.273739" xlink:href="#mc563d43ac5" y="216.372175"/>
     <use style="fill:#1f77b4;stroke:#1f77b4;" x="78.714751" xlink:href="#mc563d43ac5" y="198.906436"/>
     <use style="fill:#1f77b4;stroke:#1f77b4;" x="81.155762" xlink:href="#mc563d43ac5" y="182.68825"/>
     <use style="fill:#1f77b4;stroke:#1f77b4;" x="83.596774" xlink:href="#mc563d43ac5" y="180.193145"/>
     <use style="fill:#1f77b4;stroke:#1f77b4;" x="86.037785" xlink:href="#mc563d43ac5" y="173.145566"/>
     <use style="fill:#1f77b4;stroke:#1f77b4;" x="88.478797" xlink:href="#mc563d43ac5" y="167.739504"/>
     <use style="fill:#1f77b4;stroke:#1f77b4;" x="90.919809" xlink:href="#mc563d43ac5" y="154.848125"/>
     <use style="fill:#1f77b4;stroke:#1f77b4;" x="93.36082" xlink:href="#mc563d43ac5" y="159.860223"/>
     <use style="fill:#1f77b4;stroke:#1f77b4;" x="95.801832" xlink:href="#mc563d43ac5" y="147.384695"/>
     <use style="fill:#1f77b4;stroke:#1f77b4;" x="98.242843" xlink:href="#mc563d43ac5" y="152.396793"/>
     <use style="fill:#1f77b4;stroke:#1f77b4;" x="100.683855" xlink:href="#mc563d43ac5" y="159.072295"/>
     <use style="fill:#1f77b4;stroke:#1f77b4;" x="103.124867" xlink:href="#mc563d43ac5" y="197.04605"/>
     <use style="fill:#1f77b4;stroke:#1f77b4;" x="105.565878" xlink:href="#mc563d43ac5" y="200.810596"/>
     <use style="fill:#1f77b4;stroke:#1f77b4;" x="108.00689" xlink:href="#mc563d43ac5" y="199.147192"/>
     <use style="fill:#1f77b4;stroke:#1f77b4;" x="110.447902" xlink:href="#mc563d43ac5" y="197.899639"/>
     <use style="fill:#1f77b4;stroke:#1f77b4;" x="112.888913" xlink:href="#mc563d43ac5" y="194.156981"/>
     <use style="fill:#1f77b4;stroke:#1f77b4;" x="115.329925" xlink:href="#mc563d43ac5" y="213.351784"/>
     <use style="fill:#1f77b4;stroke:#1f77b4;" x="117.770936" xlink:href="#mc563d43ac5" y="212.104231"/>
     <use style="fill:#1f77b4;stroke:#1f77b4;" x="120.211948" xlink:href="#mc563d43ac5" y="211.272529"/>
     <use style="fill:#1f77b4;stroke:#1f77b4;" x="122.65296" xlink:href="#mc563d43ac5" y="210.440827"/>
     <use style="fill:#1f77b4;stroke:#1f77b4;" x="125.093971" xlink:href="#mc563d43ac5" y="208.777424"/>
     <use style="fill:#1f77b4;stroke:#1f77b4;" x="127.534983" xlink:href="#mc563d43ac5" y="208.361573"/>
     <use style="fill:#1f77b4;stroke:#1f77b4;" x="129.975995" xlink:href="#mc563d43ac5" y="207.945722"/>
     <use style="fill:#1f77b4;stroke:#1f77b4;" x="132.417006" xlink:href="#mc563d43ac5" y="215.037074"/>
     <use style="fill:#1f77b4;stroke:#1f77b4;" x="134.858018" xlink:href="#mc563d43ac5" y="226.724674"/>
     <use style="fill:#1f77b4;stroke:#1f77b4;" x="137.299029" xlink:href="#mc563d43ac5" y="226.724674"/>
     <use style="fill:#1f77b4;stroke:#1f77b4;" x="139.740041" xlink:href="#mc563d43ac5" y="234.647729"/>
     <use style="fill:#1f77b4;stroke:#1f77b4;" x="142.181053" xlink:href="#mc563d43ac5" y="234.647729"/>
     <use style="fill:#1f77b4;stroke:#1f77b4;" x="144.622064" xlink:href="#mc563d43ac5" y="234.231878"/>
     <use style="fill:#1f77b4;stroke:#1f77b4;" x="147.063076" xlink:href="#mc563d43ac5" y="233.816027"/>
     <use style="fill:#1f77b4;stroke:#1f77b4;" x="149.504087" xlink:href="#mc563d43ac5" y="232.984325"/>
     <use style="fill:#1f77b4;stroke:#1f77b4;" x="151.945099" xlink:href="#mc563d43ac5" y="232.984325"/>
     <use style="fill:#1f77b4;stroke:#1f77b4;" x="154.386111" xlink:href="#mc563d43ac5" y="232.568474"/>
     <use style="fill:#1f77b4;stroke:#1f77b4;" x="156.827122" xlink:href="#mc563d43ac5" y="232.152623"/>
     <use style="fill:#1f77b4;stroke:#1f77b4;" x="159.268134" xlink:href="#mc563d43ac5" y="240.075677"/>
     <use style="fill:#1f77b4;stroke:#1f77b4;" x="161.709146" xlink:href="#mc563d43ac5" y="239.659826"/>
     <use style="fill:#1f77b4;stroke:#1f77b4;" x="164.150157" xlink:href="#mc563d43ac5" y="238.828125"/>
     <use style="fill:#1f77b4;stroke:#1f77b4;" x="166.591169" xlink:href="#mc563d43ac5" y="238.412274"/>
     <use style="fill:#1f77b4;stroke:#1f77b4;" x="169.03218" xlink:href="#mc563d43ac5" y="237.996423"/>
     <use style="fill:#1f77b4;stroke:#1f77b4;" x="171.473192" xlink:href="#mc563d43ac5" y="254.258383"/>
     <use style="fill:#1f77b4;stroke:#1f77b4;" x="173.914204" xlink:href="#mc563d43ac5" y="253.426681"/>
     <use style="fill:#1f77b4;stroke:#1f77b4;" x="176.355215" xlink:href="#mc563d43ac5" y="260.933884"/>
     <use style="fill:#1f77b4;stroke:#1f77b4;" x="178.796227" xlink:href="#mc563d43ac5" y="267.609386"/>
     <use style="fill:#1f77b4;stroke:#1f77b4;" x="181.237239" xlink:href="#mc563d43ac5" y="267.609386"/>
     <use style="fill:#1f77b4;stroke:#1f77b4;" x="183.67825" xlink:href="#mc563d43ac5" y="267.609386"/>
     <use style="fill:#1f77b4;stroke:#1f77b4;" x="186.119262" xlink:href="#mc563d43ac5" y="267.193535"/>
     <use style="fill:#1f77b4;stroke:#1f77b4;" x="188.560273" xlink:href="#mc563d43ac5" y="267.193535"/>
     <use style="fill:#1f77b4;stroke:#1f77b4;" x="191.001285" xlink:href="#mc563d43ac5" y="267.193535"/>
     <use style="fill:#1f77b4;stroke:#1f77b4;" x="193.442297" xlink:href="#mc563d43ac5" y="267.193535"/>
     <use style="fill:#1f77b4;stroke:#1f77b4;" x="195.883308" xlink:href="#mc563d43ac5" y="267.193535"/>
     <use style="fill:#1f77b4;stroke:#1f77b4;" x="198.32432" xlink:href="#mc563d43ac5" y="267.193535"/>
     <use style="fill:#1f77b4;stroke:#1f77b4;" x="200.765332" xlink:href="#mc563d43ac5" y="267.193535"/>
     <use style="fill:#1f77b4;stroke:#1f77b4;" x="203.206343" xlink:href="#mc563d43ac5" y="267.193535"/>
     <use style="fill:#1f77b4;stroke:#1f77b4;" x="205.647355" xlink:href="#mc563d43ac5" y="267.609386"/>
     <use style="fill:#1f77b4;stroke:#1f77b4;" x="208.088366" xlink:href="#mc563d43ac5" y="267.193535"/>
     <use style="fill:#1f77b4;stroke:#1f77b4;" x="210.529378" xlink:href="#mc563d43ac5" y="267.193535"/>
     <use style="fill:#1f77b4;stroke:#1f77b4;" x="212.97039" xlink:href="#mc563d43ac5" y="267.193535"/>
     <use style="fill:#1f77b4;stroke:#1f77b4;" x="215.411401" xlink:href="#mc563d43ac5" y="267.193535"/>
     <use style="fill:#1f77b4;stroke:#1f77b4;" x="217.852413" xlink:href="#mc563d43ac5" y="275.53244"/>
     <use style="fill:#1f77b4;stroke:#1f77b4;" x="220.293424" xlink:href="#mc563d43ac5" y="275.53244"/>
     <use style="fill:#1f77b4;stroke:#1f77b4;" x="222.734436" xlink:href="#mc563d43ac5" y="275.53244"/>
     <use style="fill:#1f77b4;stroke:#1f77b4;" x="225.175448" xlink:href="#mc563d43ac5" y="275.53244"/>
     <use style="fill:#1f77b4;stroke:#1f77b4;" x="227.616459" xlink:href="#mc563d43ac5" y="283.871346"/>
     <use style="fill:#1f77b4;stroke:#1f77b4;" x="230.057471" xlink:href="#mc563d43ac5" y="283.871346"/>
     <use style="fill:#1f77b4;stroke:#1f77b4;" x="232.498483" xlink:href="#mc563d43ac5" y="283.455495"/>
     <use style="fill:#1f77b4;stroke:#1f77b4;" x="234.939494" xlink:href="#mc563d43ac5" y="283.455495"/>
     <use style="fill:#1f77b4;stroke:#1f77b4;" x="237.380506" xlink:href="#mc563d43ac5" y="283.455495"/>
     <use style="fill:#1f77b4;stroke:#1f77b4;" x="239.821517" xlink:href="#mc563d43ac5" y="283.455495"/>
     <use style="fill:#1f77b4;stroke:#1f77b4;" x="242.262529" xlink:href="#mc563d43ac5" y="283.455495"/>
     <use style="fill:#1f77b4;stroke:#1f77b4;" x="244.703541" xlink:href="#mc563d43ac5" y="283.455495"/>
     <use style="fill:#1f77b4;stroke:#1f77b4;" x="247.144552" xlink:href="#mc563d43ac5" y="291.7944"/>
     <use style="fill:#1f77b4;stroke:#1f77b4;" x="249.585564" xlink:href="#mc563d43ac5" y="291.7944"/>
     <use style="fill:#1f77b4;stroke:#1f77b4;" x="252.026576" xlink:href="#mc563d43ac5" y="291.7944"/>
     <use style="fill:#1f77b4;stroke:#1f77b4;" x="254.467587" xlink:href="#mc563d43ac5" y="291.7944"/>
     <use style="fill:#1f77b4;stroke:#1f77b4;" x="256.908599" xlink:href="#mc563d43ac5" y="291.7944"/>
     <use style="fill:#1f77b4;stroke:#1f77b4;" x="259.34961" xlink:href="#mc563d43ac5" y="291.7944"/>
     <use style="fill:#1f77b4;stroke:#1f77b4;" x="261.790622" xlink:href="#mc563d43ac5" y="283.455495"/>
     <use style="fill:#1f77b4;stroke:#1f77b4;" x="264.231634" xlink:href="#mc563d43ac5" y="283.455495"/>
     <use style="fill:#1f77b4;stroke:#1f77b4;" x="266.672645" xlink:href="#mc563d43ac5" y="283.455495"/>
     <use style="fill:#1f77b4;stroke:#1f77b4;" x="269.113657" xlink:href="#mc563d43ac5" y="283.455495"/>
     <use style="fill:#1f77b4;stroke:#1f77b4;" x="271.554668" xlink:href="#mc563d43ac5" y="283.455495"/>
     <use style="fill:#1f77b4;stroke:#1f77b4;" x="273.99568" xlink:href="#mc563d43ac5" y="283.455495"/>
     <use style="fill:#1f77b4;stroke:#1f77b4;" x="276.436692" xlink:href="#mc563d43ac5" y="283.455495"/>
     <use style="fill:#1f77b4;stroke:#1f77b4;" x="278.877703" xlink:href="#mc563d43ac5" y="283.455495"/>
     <use style="fill:#1f77b4;stroke:#1f77b4;" x="281.318715" xlink:href="#mc563d43ac5" y="283.455495"/>
     <use style="fill:#1f77b4;stroke:#1f77b4;" x="283.759727" xlink:href="#mc563d43ac5" y="283.455495"/>
     <use style="fill:#1f77b4;stroke:#1f77b4;" x="286.200738" xlink:href="#mc563d43ac5" y="283.455495"/>
     <use style="fill:#1f77b4;stroke:#1f77b4;" x="288.64175" xlink:href="#mc563d43ac5" y="283.455495"/>
     <use style="fill:#1f77b4;stroke:#1f77b4;" x="291.082761" xlink:href="#mc563d43ac5" y="283.455495"/>
     <use style="fill:#1f77b4;stroke:#1f77b4;" x="293.523773" xlink:href="#mc563d43ac5" y="291.7944"/>
     <use style="fill:#1f77b4;stroke:#1f77b4;" x="295.964785" xlink:href="#mc563d43ac5" y="291.7944"/>
     <use style="fill:#1f77b4;stroke:#1f77b4;" x="298.405796" xlink:href="#mc563d43ac5" y="291.7944"/>
     <use style="fill:#1f77b4;stroke:#1f77b4;" x="300.846808" xlink:href="#mc563d43ac5" y="291.7944"/>
     <use style="fill:#1f77b4;stroke:#1f77b4;" x="303.28782" xlink:href="#mc563d43ac5" y="291.7944"/>
     <use style="fill:#1f77b4;stroke:#1f77b4;" x="305.728831" xlink:href="#mc563d43ac5" y="291.7944"/>
     <use style="fill:#1f77b4;stroke:#1f77b4;" x="308.169843" xlink:href="#mc563d43ac5" y="291.378549"/>
     <use style="fill:#1f77b4;stroke:#1f77b4;" x="310.610854" xlink:href="#mc563d43ac5" y="291.378549"/>
     <use style="fill:#1f77b4;stroke:#1f77b4;" x="313.051866" xlink:href="#mc563d43ac5" y="291.378549"/>
     <use style="fill:#1f77b4;stroke:#1f77b4;" x="315.492878" xlink:href="#mc563d43ac5" y="291.378549"/>
     <use style="fill:#1f77b4;stroke:#1f77b4;" x="317.933889" xlink:href="#mc563d43ac5" y="291.378549"/>
     <use style="fill:#1f77b4;stroke:#1f77b4;" x="320.374901" xlink:href="#mc563d43ac5" y="291.378549"/>
     <use style="fill:#1f77b4;stroke:#1f77b4;" x="322.815913" xlink:href="#mc563d43ac5" y="291.378549"/>
     <use style="fill:#1f77b4;stroke:#1f77b4;" x="325.256924" xlink:href="#mc563d43ac5" y="291.378549"/>
     <use style="fill:#1f77b4;stroke:#1f77b4;" x="327.697936" xlink:href="#mc563d43ac5" y="291.378549"/>
     <use style="fill:#1f77b4;stroke:#1f77b4;" x="330.138947" xlink:href="#mc563d43ac5" y="291.378549"/>
     <use style="fill:#1f77b4;stroke:#1f77b4;" x="332.579959" xlink:href="#mc563d43ac5" y="291.378549"/>
     <use style="fill:#1f77b4;stroke:#1f77b4;" x="335.020971" xlink:href="#mc563d43ac5" y="291.378549"/>
     <use style="fill:#1f77b4;stroke:#1f77b4;" x="337.461982" xlink:href="#mc563d43ac5" y="291.378549"/>
     <use style="fill:#1f77b4;stroke:#1f77b4;" x="339.902994" xlink:href="#mc563d43ac5" y="291.378549"/>
     <use style="fill:#1f77b4;stroke:#1f77b4;" x="342.344005" xlink:href="#mc563d43ac5" y="291.378549"/>
     <use style="fill:#1f77b4;stroke:#1f77b4;" x="344.785017" xlink:href="#mc563d43ac5" y="291.378549"/>
     <use style="fill:#1f77b4;stroke:#1f77b4;" x="347.226029" xlink:href="#mc563d43ac5" y="291.378549"/>
     <use style="fill:#1f77b4;stroke:#1f77b4;" x="349.66704" xlink:href="#mc563d43ac5" y="291.378549"/>
     <use style="fill:#1f77b4;stroke:#1f77b4;" x="352.108052" xlink:href="#mc563d43ac5" y="291.378549"/>
     <use style="fill:#1f77b4;stroke:#1f77b4;" x="354.549064" xlink:href="#mc563d43ac5" y="291.378549"/>
     <use style="fill:#1f77b4;stroke:#1f77b4;" x="356.990075" xlink:href="#mc563d43ac5" y="291.378549"/>
     <use style="fill:#1f77b4;stroke:#1f77b4;" x="359.431087" xlink:href="#mc563d43ac5" y="291.378549"/>
     <use style="fill:#1f77b4;stroke:#1f77b4;" x="361.872098" xlink:href="#mc563d43ac5" y="291.378549"/>
     <use style="fill:#1f77b4;stroke:#1f77b4;" x="364.31311" xlink:href="#mc563d43ac5" y="291.378549"/>
     <use style="fill:#1f77b4;stroke:#1f77b4;" x="366.754122" xlink:href="#mc563d43ac5" y="291.378549"/>
     <use style="fill:#1f77b4;stroke:#1f77b4;" x="369.195133" xlink:href="#mc563d43ac5" y="291.378549"/>
     <use style="fill:#1f77b4;stroke:#1f77b4;" x="371.636145" xlink:href="#mc563d43ac5" y="291.378549"/>
     <use style="fill:#1f77b4;stroke:#1f77b4;" x="374.077157" xlink:href="#mc563d43ac5" y="291.378549"/>
     <use style="fill:#1f77b4;stroke:#1f77b4;" x="376.518168" xlink:href="#mc563d43ac5" y="291.378549"/>
     <use style="fill:#1f77b4;stroke:#1f77b4;" x="378.95918" xlink:href="#mc563d43ac5" y="290.962698"/>
     <use style="fill:#1f77b4;stroke:#1f77b4;" x="381.400191" xlink:href="#mc563d43ac5" y="290.962698"/>
     <use style="fill:#1f77b4;stroke:#1f77b4;" x="383.841203" xlink:href="#mc563d43ac5" y="290.962698"/>
     <use style="fill:#1f77b4;stroke:#1f77b4;" x="386.282215" xlink:href="#mc563d43ac5" y="290.962698"/>
     <use style="fill:#1f77b4;stroke:#1f77b4;" x="388.723226" xlink:href="#mc563d43ac5" y="290.962698"/>
     <use style="fill:#1f77b4;stroke:#1f77b4;" x="391.164238" xlink:href="#mc563d43ac5" y="290.962698"/>
     <use style="fill:#1f77b4;stroke:#1f77b4;" x="393.605249" xlink:href="#mc563d43ac5" y="290.962698"/>
     <use style="fill:#1f77b4;stroke:#1f77b4;" x="396.046261" xlink:href="#mc563d43ac5" y="290.962698"/>
     <use style="fill:#1f77b4;stroke:#1f77b4;" x="398.487273" xlink:href="#mc563d43ac5" y="290.962698"/>
    </g>
   </g>
   <g id="line2d_16">
    <defs>
     <path d="M 0 1.5 
C 0.397805 1.5 0.77937 1.341951 1.06066 1.06066 
C 1.341951 0.77937 1.5 0.397805 1.5 0 
C 1.5 -0.397805 1.341951 -0.77937 1.06066 -1.06066 
C 0.77937 -1.341951 0.397805 -1.5 0 -1.5 
C -0.397805 -1.5 -0.77937 -1.341951 -1.06066 -1.06066 
C -1.341951 -0.77937 -1.5 -0.397805 -1.5 0 
C -1.5 0.397805 -1.341951 0.77937 -1.06066 1.06066 
C -0.77937 1.341951 -0.397805 1.5 0 1.5 
z
" id="m0e9b46a3df" style="stroke:#ff7f0e;"/>
    </defs>
    <g clip-path="url(#p0c88c3c4ec)">
     <use style="fill:#ff7f0e;stroke:#ff7f0e;" x="73.832727" xlink:href="#m0e9b46a3df" y="213.506739"/>
     <use style="fill:#ff7f0e;stroke:#ff7f0e;" x="76.273739" xlink:href="#m0e9b46a3df" y="195.411152"/>
     <use style="fill:#ff7f0e;stroke:#ff7f0e;" x="78.714751" xlink:href="#m0e9b46a3df" y="177.818161"/>
     <use style="fill:#ff7f0e;stroke:#ff7f0e;" x="81.155762" xlink:href="#m0e9b46a3df" y="161.768476"/>
     <use style="fill:#ff7f0e;stroke:#ff7f0e;" x="83.596774" xlink:href="#m0e9b46a3df" y="159.299293"/>
     <use style="fill:#ff7f0e;stroke:#ff7f0e;" x="86.037785" xlink:href="#m0e9b46a3df" y="144.003235"/>
     <use style="fill:#ff7f0e;stroke:#ff7f0e;" x="88.478797" xlink:href="#m0e9b46a3df" y="138.656811"/>
     <use style="fill:#ff7f0e;stroke:#ff7f0e;" x="90.919809" xlink:href="#m0e9b46a3df" y="125.907648"/>
     <use style="fill:#ff7f0e;stroke:#ff7f0e;" x="93.36082" xlink:href="#m0e9b46a3df" y="122.206278"/>
     <use style="fill:#ff7f0e;stroke:#ff7f0e;" x="95.801832" xlink:href="#m0e9b46a3df" y="109.868378"/>
     <use style="fill:#ff7f0e;stroke:#ff7f0e;" x="98.242843" xlink:href="#m0e9b46a3df" y="106.167008"/>
     <use style="fill:#ff7f0e;stroke:#ff7f0e;" x="100.683855" xlink:href="#m0e9b46a3df" y="104.110691"/>
     <use style="fill:#ff7f0e;stroke:#ff7f0e;" x="103.124867" xlink:href="#m0e9b46a3df" y="123.175186"/>
     <use style="fill:#ff7f0e;stroke:#ff7f0e;" x="105.565878" xlink:href="#m0e9b46a3df" y="118.240026"/>
     <use style="fill:#ff7f0e;stroke:#ff7f0e;" x="108.00689" xlink:href="#m0e9b46a3df" y="116.594973"/>
     <use style="fill:#ff7f0e;stroke:#ff7f0e;" x="110.447902" xlink:href="#m0e9b46a3df" y="116.29791"/>
     <use style="fill:#ff7f0e;stroke:#ff7f0e;" x="112.888913" xlink:href="#m0e9b46a3df" y="114.535235"/>
     <use style="fill:#ff7f0e;stroke:#ff7f0e;" x="115.329925" xlink:href="#m0e9b46a3df" y="146.025915"/>
     <use style="fill:#ff7f0e;stroke:#ff7f0e;" x="117.770936" xlink:href="#m0e9b46a3df" y="112.716708"/>
     <use style="fill:#ff7f0e;stroke:#ff7f0e;" x="120.211948" xlink:href="#m0e9b46a3df" y="111.898957"/>
     <use style="fill:#ff7f0e;stroke:#ff7f0e;" x="122.65296" xlink:href="#m0e9b46a3df" y="111.081206"/>
     <use style="fill:#ff7f0e;stroke:#ff7f0e;" x="125.093971" xlink:href="#m0e9b46a3df" y="109.445705"/>
     <use style="fill:#ff7f0e;stroke:#ff7f0e;" x="127.534983" xlink:href="#m0e9b46a3df" y="109.03683"/>
     <use style="fill:#ff7f0e;stroke:#ff7f0e;" x="129.975995" xlink:href="#m0e9b46a3df" y="108.627954"/>
     <use style="fill:#ff7f0e;stroke:#ff7f0e;" x="132.417006" xlink:href="#m0e9b46a3df" y="82.79771"/>
     <use style="fill:#ff7f0e;stroke:#ff7f0e;" x="134.858018" xlink:href="#m0e9b46a3df" y="104.869058"/>
     <use style="fill:#ff7f0e;stroke:#ff7f0e;" x="137.299029" xlink:href="#m0e9b46a3df" y="104.869058"/>
     <use style="fill:#ff7f0e;stroke:#ff7f0e;" x="139.740041" xlink:href="#m0e9b46a3df" y="104.052887"/>
     <use style="fill:#ff7f0e;stroke:#ff7f0e;" x="142.181053" xlink:href="#m0e9b46a3df" y="104.052887"/>
     <use style="fill:#ff7f0e;stroke:#ff7f0e;" x="144.622064" xlink:href="#m0e9b46a3df" y="103.644802"/>
     <use style="fill:#ff7f0e;stroke:#ff7f0e;" x="147.063076" xlink:href="#m0e9b46a3df" y="103.236716"/>
     <use style="fill:#ff7f0e;stroke:#ff7f0e;" x="149.504087" xlink:href="#m0e9b46a3df" y="102.420545"/>
     <use style="fill:#ff7f0e;stroke:#ff7f0e;" x="151.945099" xlink:href="#m0e9b46a3df" y="102.420545"/>
     <use style="fill:#ff7f0e;stroke:#ff7f0e;" x="154.386111" xlink:href="#m0e9b46a3df" y="102.01246"/>
     <use style="fill:#ff7f0e;stroke:#ff7f0e;" x="156.827122" xlink:href="#m0e9b46a3df" y="88.690962"/>
     <use style="fill:#ff7f0e;stroke:#ff7f0e;" x="159.268134" xlink:href="#m0e9b46a3df" y="103.371298"/>
     <use style="fill:#ff7f0e;stroke:#ff7f0e;" x="161.709146" xlink:href="#m0e9b46a3df" y="102.963738"/>
     <use style="fill:#ff7f0e;stroke:#ff7f0e;" x="164.150157" xlink:href="#m0e9b46a3df" y="102.148617"/>
     <use style="fill:#ff7f0e;stroke:#ff7f0e;" x="166.591169" xlink:href="#m0e9b46a3df" y="74.943663"/>
     <use style="fill:#ff7f0e;stroke:#ff7f0e;" x="169.03218" xlink:href="#m0e9b46a3df" y="74.536887"/>
     <use style="fill:#ff7f0e;stroke:#ff7f0e;" x="171.473192" xlink:href="#m0e9b46a3df" y="88.812783"/>
     <use style="fill:#ff7f0e;stroke:#ff7f0e;" x="173.914204" xlink:href="#m0e9b46a3df" y="87.999231"/>
     <use style="fill:#ff7f0e;stroke:#ff7f0e;" x="176.355215" xlink:href="#m0e9b46a3df" y="86.778904"/>
     <use style="fill:#ff7f0e;stroke:#ff7f0e;" x="178.796227" xlink:href="#m0e9b46a3df" y="100.241248"/>
     <use style="fill:#ff7f0e;stroke:#ff7f0e;" x="181.237239" xlink:href="#m0e9b46a3df" y="100.241248"/>
     <use style="fill:#ff7f0e;stroke:#ff7f0e;" x="183.67825" xlink:href="#m0e9b46a3df" y="100.241248"/>
     <use style="fill:#ff7f0e;stroke:#ff7f0e;" x="186.119262" xlink:href="#m0e9b46a3df" y="99.834472"/>
     <use style="fill:#ff7f0e;stroke:#ff7f0e;" x="188.560273" xlink:href="#m0e9b46a3df" y="99.834472"/>
     <use style="fill:#ff7f0e;stroke:#ff7f0e;" x="191.001285" xlink:href="#m0e9b46a3df" y="85.469876"/>
     <use style="fill:#ff7f0e;stroke:#ff7f0e;" x="193.442297" xlink:href="#m0e9b46a3df" y="85.469876"/>
     <use style="fill:#ff7f0e;stroke:#ff7f0e;" x="195.883308" xlink:href="#m0e9b46a3df" y="85.469876"/>
     <use style="fill:#ff7f0e;stroke:#ff7f0e;" x="198.32432" xlink:href="#m0e9b46a3df" y="85.469876"/>
     <use style="fill:#ff7f0e;stroke:#ff7f0e;" x="200.765332" xlink:href="#m0e9b46a3df" y="85.469876"/>
     <use style="fill:#ff7f0e;stroke:#ff7f0e;" x="203.206343" xlink:href="#m0e9b46a3df" y="85.469876"/>
     <use style="fill:#ff7f0e;stroke:#ff7f0e;" x="205.647355" xlink:href="#m0e9b46a3df" y="85.87639"/>
     <use style="fill:#ff7f0e;stroke:#ff7f0e;" x="208.088366" xlink:href="#m0e9b46a3df" y="85.469876"/>
     <use style="fill:#ff7f0e;stroke:#ff7f0e;" x="210.529378" xlink:href="#m0e9b46a3df" y="85.469876"/>
     <use style="fill:#ff7f0e;stroke:#ff7f0e;" x="212.97039" xlink:href="#m0e9b46a3df" y="70.387624"/>
     <use style="fill:#ff7f0e;stroke:#ff7f0e;" x="215.411401" xlink:href="#m0e9b46a3df" y="70.387624"/>
     <use style="fill:#ff7f0e;stroke:#ff7f0e;" x="217.852413" xlink:href="#m0e9b46a3df" y="69.98137"/>
     <use style="fill:#ff7f0e;stroke:#ff7f0e;" x="220.293424" xlink:href="#m0e9b46a3df" y="54.126519"/>
     <use style="fill:#ff7f0e;stroke:#ff7f0e;" x="222.734436" xlink:href="#m0e9b46a3df" y="54.126519"/>
     <use style="fill:#ff7f0e;stroke:#ff7f0e;" x="225.175448" xlink:href="#m0e9b46a3df" y="54.126519"/>
     <use style="fill:#ff7f0e;stroke:#ff7f0e;" x="227.616459" xlink:href="#m0e9b46a3df" y="53.720525"/>
     <use style="fill:#ff7f0e;stroke:#ff7f0e;" x="230.057471" xlink:href="#m0e9b46a3df" y="53.720525"/>
     <use style="fill:#ff7f0e;stroke:#ff7f0e;" x="232.498483" xlink:href="#m0e9b46a3df" y="53.314531"/>
     <use style="fill:#ff7f0e;stroke:#ff7f0e;" x="234.939494" xlink:href="#m0e9b46a3df" y="53.314531"/>
     <use style="fill:#ff7f0e;stroke:#ff7f0e;" x="237.380506" xlink:href="#m0e9b46a3df" y="53.314531"/>
     <use style="fill:#ff7f0e;stroke:#ff7f0e;" x="239.821517" xlink:href="#m0e9b46a3df" y="53.314531"/>
     <use style="fill:#ff7f0e;stroke:#ff7f0e;" x="242.262529" xlink:href="#m0e9b46a3df" y="53.314531"/>
     <use style="fill:#ff7f0e;stroke:#ff7f0e;" x="244.703541" xlink:href="#m0e9b46a3df" y="53.314531"/>
     <use style="fill:#ff7f0e;stroke:#ff7f0e;" x="247.144552" xlink:href="#m0e9b46a3df" y="52.908537"/>
     <use style="fill:#ff7f0e;stroke:#ff7f0e;" x="249.585564" xlink:href="#m0e9b46a3df" y="52.908537"/>
     <use style="fill:#ff7f0e;stroke:#ff7f0e;" x="252.026576" xlink:href="#m0e9b46a3df" y="52.908537"/>
     <use style="fill:#ff7f0e;stroke:#ff7f0e;" x="254.467587" xlink:href="#m0e9b46a3df" y="52.908537"/>
     <use style="fill:#ff7f0e;stroke:#ff7f0e;" x="256.908599" xlink:href="#m0e9b46a3df" y="52.908537"/>
     <use style="fill:#ff7f0e;stroke:#ff7f0e;" x="259.34961" xlink:href="#m0e9b46a3df" y="52.908537"/>
     <use style="fill:#ff7f0e;stroke:#ff7f0e;" x="261.790622" xlink:href="#m0e9b46a3df" y="53.314531"/>
     <use style="fill:#ff7f0e;stroke:#ff7f0e;" x="264.231634" xlink:href="#m0e9b46a3df" y="53.314531"/>
     <use style="fill:#ff7f0e;stroke:#ff7f0e;" x="266.672645" xlink:href="#m0e9b46a3df" y="53.314531"/>
     <use style="fill:#ff7f0e;stroke:#ff7f0e;" x="269.113657" xlink:href="#m0e9b46a3df" y="53.314531"/>
     <use style="fill:#ff7f0e;stroke:#ff7f0e;" x="271.554668" xlink:href="#m0e9b46a3df" y="53.314531"/>
     <use style="fill:#ff7f0e;stroke:#ff7f0e;" x="273.99568" xlink:href="#m0e9b46a3df" y="53.314531"/>
     <use style="fill:#ff7f0e;stroke:#ff7f0e;" x="276.436692" xlink:href="#m0e9b46a3df" y="53.314531"/>
     <use style="fill:#ff7f0e;stroke:#ff7f0e;" x="278.877703" xlink:href="#m0e9b46a3df" y="53.314531"/>
     <use style="fill:#ff7f0e;stroke:#ff7f0e;" x="281.318715" xlink:href="#m0e9b46a3df" y="53.314531"/>
     <use style="fill:#ff7f0e;stroke:#ff7f0e;" x="283.759727" xlink:href="#m0e9b46a3df" y="53.314531"/>
     <use style="fill:#ff7f0e;stroke:#ff7f0e;" x="286.200738" xlink:href="#m0e9b46a3df" y="53.314531"/>
     <use style="fill:#ff7f0e;stroke:#ff7f0e;" x="288.64175" xlink:href="#m0e9b46a3df" y="53.314531"/>
     <use style="fill:#ff7f0e;stroke:#ff7f0e;" x="291.082761" xlink:href="#m0e9b46a3df" y="53.314531"/>
     <use style="fill:#ff7f0e;stroke:#ff7f0e;" x="293.523773" xlink:href="#m0e9b46a3df" y="52.908537"/>
     <use style="fill:#ff7f0e;stroke:#ff7f0e;" x="295.964785" xlink:href="#m0e9b46a3df" y="52.908537"/>
     <use style="fill:#ff7f0e;stroke:#ff7f0e;" x="298.405796" xlink:href="#m0e9b46a3df" y="52.908537"/>
     <use style="fill:#ff7f0e;stroke:#ff7f0e;" x="300.846808" xlink:href="#m0e9b46a3df" y="53.304134"/>
     <use style="fill:#ff7f0e;stroke:#ff7f0e;" x="303.28782" xlink:href="#m0e9b46a3df" y="53.304134"/>
     <use style="fill:#ff7f0e;stroke:#ff7f0e;" x="305.728831" xlink:href="#m0e9b46a3df" y="53.304134"/>
     <use style="fill:#ff7f0e;stroke:#ff7f0e;" x="308.169843" xlink:href="#m0e9b46a3df" y="52.8984"/>
     <use style="fill:#ff7f0e;stroke:#ff7f0e;" x="310.610854" xlink:href="#m0e9b46a3df" y="52.8984"/>
     <use style="fill:#ff7f0e;stroke:#ff7f0e;" x="313.051866" xlink:href="#m0e9b46a3df" y="52.8984"/>
     <use style="fill:#ff7f0e;stroke:#ff7f0e;" x="315.492878" xlink:href="#m0e9b46a3df" y="52.8984"/>
     <use style="fill:#ff7f0e;stroke:#ff7f0e;" x="317.933889" xlink:href="#m0e9b46a3df" y="52.8984"/>
     <use style="fill:#ff7f0e;stroke:#ff7f0e;" x="320.374901" xlink:href="#m0e9b46a3df" y="53.293751"/>
     <use style="fill:#ff7f0e;stroke:#ff7f0e;" x="322.815913" xlink:href="#m0e9b46a3df" y="53.293751"/>
     <use style="fill:#ff7f0e;stroke:#ff7f0e;" x="325.256924" xlink:href="#m0e9b46a3df" y="53.293751"/>
     <use style="fill:#ff7f0e;stroke:#ff7f0e;" x="327.697936" xlink:href="#m0e9b46a3df" y="53.293751"/>
     <use style="fill:#ff7f0e;stroke:#ff7f0e;" x="330.138947" xlink:href="#m0e9b46a3df" y="53.293751"/>
     <use style="fill:#ff7f0e;stroke:#ff7f0e;" x="332.579959" xlink:href="#m0e9b46a3df" y="53.293751"/>
     <use style="fill:#ff7f0e;stroke:#ff7f0e;" x="335.020971" xlink:href="#m0e9b46a3df" y="53.293751"/>
     <use style="fill:#ff7f0e;stroke:#ff7f0e;" x="337.461982" xlink:href="#m0e9b46a3df" y="53.293751"/>
     <use style="fill:#ff7f0e;stroke:#ff7f0e;" x="339.902994" xlink:href="#m0e9b46a3df" y="53.293751"/>
     <use style="fill:#ff7f0e;stroke:#ff7f0e;" x="342.344005" xlink:href="#m0e9b46a3df" y="53.293751"/>
     <use style="fill:#ff7f0e;stroke:#ff7f0e;" x="344.785017" xlink:href="#m0e9b46a3df" y="53.293751"/>
     <use style="fill:#ff7f0e;stroke:#ff7f0e;" x="347.226029" xlink:href="#m0e9b46a3df" y="53.293751"/>
     <use style="fill:#ff7f0e;stroke:#ff7f0e;" x="349.66704" xlink:href="#m0e9b46a3df" y="53.293751"/>
     <use style="fill:#ff7f0e;stroke:#ff7f0e;" x="352.108052" xlink:href="#m0e9b46a3df" y="53.293751"/>
     <use style="fill:#ff7f0e;stroke:#ff7f0e;" x="354.549064" xlink:href="#m0e9b46a3df" y="53.293751"/>
     <use style="fill:#ff7f0e;stroke:#ff7f0e;" x="356.990075" xlink:href="#m0e9b46a3df" y="53.293751"/>
     <use style="fill:#ff7f0e;stroke:#ff7f0e;" x="359.431087" xlink:href="#m0e9b46a3df" y="53.293751"/>
     <use style="fill:#ff7f0e;stroke:#ff7f0e;" x="361.872098" xlink:href="#m0e9b46a3df" y="53.688596"/>
     <use style="fill:#ff7f0e;stroke:#ff7f0e;" x="364.31311" xlink:href="#m0e9b46a3df" y="53.688596"/>
     <use style="fill:#ff7f0e;stroke:#ff7f0e;" x="366.754122" xlink:href="#m0e9b46a3df" y="53.688596"/>
     <use style="fill:#ff7f0e;stroke:#ff7f0e;" x="369.195133" xlink:href="#m0e9b46a3df" y="53.688596"/>
     <use style="fill:#ff7f0e;stroke:#ff7f0e;" x="371.636145" xlink:href="#m0e9b46a3df" y="54.082936"/>
     <use style="fill:#ff7f0e;stroke:#ff7f0e;" x="374.077157" xlink:href="#m0e9b46a3df" y="54.082936"/>
     <use style="fill:#ff7f0e;stroke:#ff7f0e;" x="376.518168" xlink:href="#m0e9b46a3df" y="54.082936"/>
     <use style="fill:#ff7f0e;stroke:#ff7f0e;" x="378.95918" xlink:href="#m0e9b46a3df" y="53.67798"/>
     <use style="fill:#ff7f0e;stroke:#ff7f0e;" x="381.400191" xlink:href="#m0e9b46a3df" y="53.67798"/>
     <use style="fill:#ff7f0e;stroke:#ff7f0e;" x="383.841203" xlink:href="#m0e9b46a3df" y="53.67798"/>
     <use style="fill:#ff7f0e;stroke:#ff7f0e;" x="386.282215" xlink:href="#m0e9b46a3df" y="53.67798"/>
     <use style="fill:#ff7f0e;stroke:#ff7f0e;" x="388.723226" xlink:href="#m0e9b46a3df" y="53.67798"/>
     <use style="fill:#ff7f0e;stroke:#ff7f0e;" x="391.164238" xlink:href="#m0e9b46a3df" y="53.67798"/>
     <use style="fill:#ff7f0e;stroke:#ff7f0e;" x="393.605249" xlink:href="#m0e9b46a3df" y="53.67798"/>
     <use style="fill:#ff7f0e;stroke:#ff7f0e;" x="396.046261" xlink:href="#m0e9b46a3df" y="53.67798"/>
     <use style="fill:#ff7f0e;stroke:#ff7f0e;" x="398.487273" xlink:href="#m0e9b46a3df" y="53.67798"/>
    </g>
   </g>
   <g id="patch_3">
    <path d="M 57.6 303.7392 
L 57.6 40.9536 
" style="fill:none;stroke:#000000;stroke-linecap:square;stroke-linejoin:miter;stroke-width:0.8;"/>
   </g>
   <g id="patch_4">
    <path d="M 414.72 303.7392 
L 414.72 40.9536 
" style="fill:none;stroke:#000000;stroke-linecap:square;stroke-linejoin:miter;stroke-width:0.8;"/>
   </g>
   <g id="patch_5">
    <path d="M 57.6 303.7392 
L 414.72 303.7392 
" style="fill:none;stroke:#000000;stroke-linecap:square;stroke-linejoin:miter;stroke-width:0.8;"/>
   </g>
   <g id="patch_6">
    <path d="M 57.6 40.9536 
L 414.72 40.9536 
" style="fill:none;stroke:#000000;stroke-linecap:square;stroke-linejoin:miter;stroke-width:0.8;"/>
   </g>
   <g id="text_17">
    <!-- r = 2 -->
    <defs>
     <path d="M 41.109375 46.296875 
Q 39.59375 47.171875 37.8125 47.578125 
Q 36.03125 48 33.890625 48 
Q 26.265625 48 22.1875 43.046875 
Q 18.109375 38.09375 18.109375 28.8125 
L 18.109375 0 
L 9.078125 0 
L 9.078125 54.6875 
L 18.109375 54.6875 
L 18.109375 46.1875 
Q 20.953125 51.171875 25.484375 53.578125 
Q 30.03125 56 36.53125 56 
Q 37.453125 56 38.578125 55.875 
Q 39.703125 55.765625 41.0625 55.515625 
z
" id="DejaVuSans-114"/>
     <path id="DejaVuSans-32"/>
     <path d="M 10.59375 45.40625 
L 73.1875 45.40625 
L 73.1875 37.203125 
L 10.59375 37.203125 
z
M 10.59375 25.484375 
L 73.1875 25.484375 
L 73.1875 17.1875 
L 10.59375 17.1875 
z
" id="DejaVuSans-61"/>
    </defs>
    <g transform="translate(218.00925 34.9536)scale(0.144 -0.144)">
     <use xlink:href="#DejaVuSans-114"/>
     <use x="41.113281" xlink:href="#DejaVuSans-32"/>
     <use x="72.900391" xlink:href="#DejaVuSans-61"/>
     <use x="156.689453" xlink:href="#DejaVuSans-32"/>
     <use x="188.476562" xlink:href="#DejaVuSans-50"/>
    </g>
   </g>
   <g id="legend_1">
    <g id="patch_7">
     <path d="M 154.860625 188.524525 
L 407.72 188.524525 
Q 409.72 188.524525 409.72 186.524525 
L 409.72 158.168275 
Q 409.72 156.168275 407.72 156.168275 
L 154.860625 156.168275 
Q 152.860625 156.168275 152.860625 158.168275 
L 152.860625 186.524525 
Q 152.860625 188.524525 154.860625 188.524525 
z
" style="fill:#ffffff;opacity:0.8;stroke:#cccccc;stroke-linejoin:miter;"/>
    </g>
    <g id="line2d_17"/>
    <g id="line2d_18">
     <g>
      <use style="fill:#1f77b4;stroke:#1f77b4;" x="166.860625" xlink:href="#mc563d43ac5" y="164.266713"/>
     </g>
    </g>
    <g id="text_18">
     <!-- Resilience-Equity alignment -->
     <defs>
      <path d="M 44.390625 34.1875 
Q 47.5625 33.109375 50.5625 29.59375 
Q 53.5625 26.078125 56.59375 19.921875 
L 66.609375 0 
L 56 0 
L 46.6875 18.703125 
Q 43.0625 26.03125 39.671875 28.421875 
Q 36.28125 30.8125 30.421875 30.8125 
L 19.671875 30.8125 
L 19.671875 0 
L 9.8125 0 
L 9.8125 72.90625 
L 32.078125 72.90625 
Q 44.578125 72.90625 50.734375 67.671875 
Q 56.890625 62.453125 56.890625 51.90625 
Q 56.890625 45.015625 53.6875 40.46875 
Q 50.484375 35.9375 44.390625 34.1875 
z
M 19.671875 64.796875 
L 19.671875 38.921875 
L 32.078125 38.921875 
Q 39.203125 38.921875 42.84375 42.21875 
Q 46.484375 45.515625 46.484375 51.90625 
Q 46.484375 58.296875 42.84375 61.546875 
Q 39.203125 64.796875 32.078125 64.796875 
z
" id="DejaVuSans-82"/>
      <path d="M 44.28125 53.078125 
L 44.28125 44.578125 
Q 40.484375 46.53125 36.375 47.5 
Q 32.28125 48.484375 27.875 48.484375 
Q 21.1875 48.484375 17.84375 46.4375 
Q 14.5 44.390625 14.5 40.28125 
Q 14.5 37.15625 16.890625 35.375 
Q 19.28125 33.59375 26.515625 31.984375 
L 29.59375 31.296875 
Q 39.15625 29.25 43.1875 25.515625 
Q 47.21875 21.78125 47.21875 15.09375 
Q 47.21875 7.46875 41.1875 3.015625 
Q 35.15625 -1.421875 24.609375 -1.421875 
Q 20.21875 -1.421875 15.453125 -0.5625 
Q 10.6875 0.296875 5.421875 2 
L 5.421875 11.28125 
Q 10.40625 8.6875 15.234375 7.390625 
Q 20.0625 6.109375 24.8125 6.109375 
Q 31.15625 6.109375 34.5625 8.28125 
Q 37.984375 10.453125 37.984375 14.40625 
Q 37.984375 18.0625 35.515625 20.015625 
Q 33.0625 21.96875 24.703125 23.78125 
L 21.578125 24.515625 
Q 13.234375 26.265625 9.515625 29.90625 
Q 5.8125 33.546875 5.8125 39.890625 
Q 5.8125 47.609375 11.28125 51.796875 
Q 16.75 56 26.8125 56 
Q 31.78125 56 36.171875 55.265625 
Q 40.578125 54.546875 44.28125 53.078125 
z
" id="DejaVuSans-115"/>
      <path d="M 48.78125 52.59375 
L 48.78125 44.1875 
Q 44.96875 46.296875 41.140625 47.34375 
Q 37.3125 48.390625 33.40625 48.390625 
Q 24.65625 48.390625 19.8125 42.84375 
Q 14.984375 37.3125 14.984375 27.296875 
Q 14.984375 17.28125 19.8125 11.734375 
Q 24.65625 6.203125 33.40625 6.203125 
Q 37.3125 6.203125 41.140625 7.25 
Q 44.96875 8.296875 48.78125 10.40625 
L 48.78125 2.09375 
Q 45.015625 0.34375 40.984375 -0.53125 
Q 36.96875 -1.421875 32.421875 -1.421875 
Q 20.0625 -1.421875 12.78125 6.34375 
Q 5.515625 14.109375 5.515625 27.296875 
Q 5.515625 40.671875 12.859375 48.328125 
Q 20.21875 56 33.015625 56 
Q 37.15625 56 41.109375 55.140625 
Q 45.0625 54.296875 48.78125 52.59375 
z
" id="DejaVuSans-99"/>
      <path d="M 4.890625 31.390625 
L 31.203125 31.390625 
L 31.203125 23.390625 
L 4.890625 23.390625 
z
" id="DejaVuSans-45"/>
      <path d="M 9.8125 72.90625 
L 55.90625 72.90625 
L 55.90625 64.59375 
L 19.671875 64.59375 
L 19.671875 43.015625 
L 54.390625 43.015625 
L 54.390625 34.71875 
L 19.671875 34.71875 
L 19.671875 8.296875 
L 56.78125 8.296875 
L 56.78125 0 
L 9.8125 0 
z
" id="DejaVuSans-69"/>
      <path d="M 14.796875 27.296875 
Q 14.796875 17.390625 18.875 11.75 
Q 22.953125 6.109375 30.078125 6.109375 
Q 37.203125 6.109375 41.296875 11.75 
Q 45.40625 17.390625 45.40625 27.296875 
Q 45.40625 37.203125 41.296875 42.84375 
Q 37.203125 48.484375 30.078125 48.484375 
Q 22.953125 48.484375 18.875 42.84375 
Q 14.796875 37.203125 14.796875 27.296875 
z
M 45.40625 8.203125 
Q 42.578125 3.328125 38.25 0.953125 
Q 33.9375 -1.421875 27.875 -1.421875 
Q 17.96875 -1.421875 11.734375 6.484375 
Q 5.515625 14.40625 5.515625 27.296875 
Q 5.515625 40.1875 11.734375 48.09375 
Q 17.96875 56 27.875 56 
Q 33.9375 56 38.25 53.625 
Q 42.578125 51.265625 45.40625 46.390625 
L 45.40625 54.6875 
L 54.390625 54.6875 
L 54.390625 -20.796875 
L 45.40625 -20.796875 
z
" id="DejaVuSans-113"/>
      <path d="M 8.5 21.578125 
L 8.5 54.6875 
L 17.484375 54.6875 
L 17.484375 21.921875 
Q 17.484375 14.15625 20.5 10.265625 
Q 23.53125 6.390625 29.59375 6.390625 
Q 36.859375 6.390625 41.078125 11.03125 
Q 45.3125 15.671875 45.3125 23.6875 
L 45.3125 54.6875 
L 54.296875 54.6875 
L 54.296875 0 
L 45.3125 0 
L 45.3125 8.40625 
Q 42.046875 3.421875 37.71875 1 
Q 33.40625 -1.421875 27.6875 -1.421875 
Q 18.265625 -1.421875 13.375 4.4375 
Q 8.5 10.296875 8.5 21.578125 
z
M 31.109375 56 
z
" id="DejaVuSans-117"/>
      <path d="M 32.171875 -5.078125 
Q 28.375 -14.84375 24.75 -17.8125 
Q 21.140625 -20.796875 15.09375 -20.796875 
L 7.90625 -20.796875 
L 7.90625 -13.28125 
L 13.1875 -13.28125 
Q 16.890625 -13.28125 18.9375 -11.515625 
Q 21 -9.765625 23.484375 -3.21875 
L 25.09375 0.875 
L 2.984375 54.6875 
L 12.5 54.6875 
L 29.59375 11.921875 
L 46.6875 54.6875 
L 56.203125 54.6875 
z
" id="DejaVuSans-121"/>
      <path d="M 34.28125 27.484375 
Q 23.390625 27.484375 19.1875 25 
Q 14.984375 22.515625 14.984375 16.5 
Q 14.984375 11.71875 18.140625 8.90625 
Q 21.296875 6.109375 26.703125 6.109375 
Q 34.1875 6.109375 38.703125 11.40625 
Q 43.21875 16.703125 43.21875 25.484375 
L 43.21875 27.484375 
z
M 52.203125 31.203125 
L 52.203125 0 
L 43.21875 0 
L 43.21875 8.296875 
Q 40.140625 3.328125 35.546875 0.953125 
Q 30.953125 -1.421875 24.3125 -1.421875 
Q 15.921875 -1.421875 10.953125 3.296875 
Q 6 8.015625 6 15.921875 
Q 6 25.140625 12.171875 29.828125 
Q 18.359375 34.515625 30.609375 34.515625 
L 43.21875 34.515625 
L 43.21875 35.40625 
Q 43.21875 41.609375 39.140625 45 
Q 35.0625 48.390625 27.6875 48.390625 
Q 23 48.390625 18.546875 47.265625 
Q 14.109375 46.140625 10.015625 43.890625 
L 10.015625 52.203125 
Q 14.9375 54.109375 19.578125 55.046875 
Q 24.21875 56 28.609375 56 
Q 40.484375 56 46.34375 49.84375 
Q 52.203125 43.703125 52.203125 31.203125 
z
" id="DejaVuSans-97"/>
     </defs>
     <g transform="translate(184.860625 167.766713)scale(0.1 -0.1)">
      <use xlink:href="#DejaVuSans-82"/>
      <use x="69.419922" xlink:href="#DejaVuSans-101"/>
      <use x="130.943359" xlink:href="#DejaVuSans-115"/>
      <use x="183.042969" xlink:href="#DejaVuSans-105"/>
      <use x="210.826172" xlink:href="#DejaVuSans-108"/>
      <use x="238.609375" xlink:href="#DejaVuSans-105"/>
      <use x="266.392578" xlink:href="#DejaVuSans-101"/>
      <use x="327.916016" xlink:href="#DejaVuSans-110"/>
      <use x="391.294922" xlink:href="#DejaVuSans-99"/>
      <use x="446.275391" xlink:href="#DejaVuSans-101"/>
      <use x="507.798828" xlink:href="#DejaVuSans-45"/>
      <use x="543.882812" xlink:href="#DejaVuSans-69"/>
      <use x="607.066406" xlink:href="#DejaVuSans-113"/>
      <use x="670.542969" xlink:href="#DejaVuSans-117"/>
      <use x="733.921875" xlink:href="#DejaVuSans-105"/>
      <use x="761.705078" xlink:href="#DejaVuSans-116"/>
      <use x="800.914062" xlink:href="#DejaVuSans-121"/>
      <use x="860.09375" xlink:href="#DejaVuSans-32"/>
      <use x="891.880859" xlink:href="#DejaVuSans-97"/>
      <use x="953.160156" xlink:href="#DejaVuSans-108"/>
      <use x="980.943359" xlink:href="#DejaVuSans-105"/>
      <use x="1008.726562" xlink:href="#DejaVuSans-103"/>
      <use x="1072.203125" xlink:href="#DejaVuSans-110"/>
      <use x="1135.582031" xlink:href="#DejaVuSans-109"/>
      <use x="1232.994141" xlink:href="#DejaVuSans-101"/>
      <use x="1294.517578" xlink:href="#DejaVuSans-110"/>
      <use x="1357.896484" xlink:href="#DejaVuSans-116"/>
     </g>
    </g>
    <g id="line2d_19"/>
    <g id="line2d_20">
     <g>
      <use style="fill:#ff7f0e;stroke:#ff7f0e;" x="166.860625" xlink:href="#m0e9b46a3df" y="178.944838"/>
     </g>
    </g>
    <g id="text_19">
     <!-- Combined resilience/profit-equity alignment -->
     <defs>
      <path d="M 64.40625 67.28125 
L 64.40625 56.890625 
Q 59.421875 61.53125 53.78125 63.8125 
Q 48.140625 66.109375 41.796875 66.109375 
Q 29.296875 66.109375 22.65625 58.46875 
Q 16.015625 50.828125 16.015625 36.375 
Q 16.015625 21.96875 22.65625 14.328125 
Q 29.296875 6.6875 41.796875 6.6875 
Q 48.140625 6.6875 53.78125 8.984375 
Q 59.421875 11.28125 64.40625 15.921875 
L 64.40625 5.609375 
Q 59.234375 2.09375 53.4375 0.328125 
Q 47.65625 -1.421875 41.21875 -1.421875 
Q 24.65625 -1.421875 15.125 8.703125 
Q 5.609375 18.84375 5.609375 36.375 
Q 5.609375 53.953125 15.125 64.078125 
Q 24.65625 74.21875 41.21875 74.21875 
Q 47.75 74.21875 53.53125 72.484375 
Q 59.328125 70.75 64.40625 67.28125 
z
" id="DejaVuSans-67"/>
      <path d="M 30.609375 48.390625 
Q 23.390625 48.390625 19.1875 42.75 
Q 14.984375 37.109375 14.984375 27.296875 
Q 14.984375 17.484375 19.15625 11.84375 
Q 23.34375 6.203125 30.609375 6.203125 
Q 37.796875 6.203125 41.984375 11.859375 
Q 46.1875 17.53125 46.1875 27.296875 
Q 46.1875 37.015625 41.984375 42.703125 
Q 37.796875 48.390625 30.609375 48.390625 
z
M 30.609375 56 
Q 42.328125 56 49.015625 48.375 
Q 55.71875 40.765625 55.71875 27.296875 
Q 55.71875 13.875 49.015625 6.21875 
Q 42.328125 -1.421875 30.609375 -1.421875 
Q 18.84375 -1.421875 12.171875 6.21875 
Q 5.515625 13.875 5.515625 27.296875 
Q 5.515625 40.765625 12.171875 48.375 
Q 18.84375 56 30.609375 56 
z
" id="DejaVuSans-111"/>
      <path d="M 48.6875 27.296875 
Q 48.6875 37.203125 44.609375 42.84375 
Q 40.53125 48.484375 33.40625 48.484375 
Q 26.265625 48.484375 22.1875 42.84375 
Q 18.109375 37.203125 18.109375 27.296875 
Q 18.109375 17.390625 22.1875 11.75 
Q 26.265625 6.109375 33.40625 6.109375 
Q 40.53125 6.109375 44.609375 11.75 
Q 48.6875 17.390625 48.6875 27.296875 
z
M 18.109375 46.390625 
Q 20.953125 51.265625 25.265625 53.625 
Q 29.59375 56 35.59375 56 
Q 45.5625 56 51.78125 48.09375 
Q 58.015625 40.1875 58.015625 27.296875 
Q 58.015625 14.40625 51.78125 6.484375 
Q 45.5625 -1.421875 35.59375 -1.421875 
Q 29.59375 -1.421875 25.265625 0.953125 
Q 20.953125 3.328125 18.109375 8.203125 
L 18.109375 0 
L 9.078125 0 
L 9.078125 75.984375 
L 18.109375 75.984375 
z
" id="DejaVuSans-98"/>
      <path d="M 45.40625 46.390625 
L 45.40625 75.984375 
L 54.390625 75.984375 
L 54.390625 0 
L 45.40625 0 
L 45.40625 8.203125 
Q 42.578125 3.328125 38.25 0.953125 
Q 33.9375 -1.421875 27.875 -1.421875 
Q 17.96875 -1.421875 11.734375 6.484375 
Q 5.515625 14.40625 5.515625 27.296875 
Q 5.515625 40.1875 11.734375 48.09375 
Q 17.96875 56 27.875 56 
Q 33.9375 56 38.25 53.625 
Q 42.578125 51.265625 45.40625 46.390625 
z
M 14.796875 27.296875 
Q 14.796875 17.390625 18.875 11.75 
Q 22.953125 6.109375 30.078125 6.109375 
Q 37.203125 6.109375 41.296875 11.75 
Q 45.40625 17.390625 45.40625 27.296875 
Q 45.40625 37.203125 41.296875 42.84375 
Q 37.203125 48.484375 30.078125 48.484375 
Q 22.953125 48.484375 18.875 42.84375 
Q 14.796875 37.203125 14.796875 27.296875 
z
" id="DejaVuSans-100"/>
      <path d="M 25.390625 72.90625 
L 33.6875 72.90625 
L 8.296875 -9.28125 
L 0 -9.28125 
z
" id="DejaVuSans-47"/>
      <path d="M 18.109375 8.203125 
L 18.109375 -20.796875 
L 9.078125 -20.796875 
L 9.078125 54.6875 
L 18.109375 54.6875 
L 18.109375 46.390625 
Q 20.953125 51.265625 25.265625 53.625 
Q 29.59375 56 35.59375 56 
Q 45.5625 56 51.78125 48.09375 
Q 58.015625 40.1875 58.015625 27.296875 
Q 58.015625 14.40625 51.78125 6.484375 
Q 45.5625 -1.421875 35.59375 -1.421875 
Q 29.59375 -1.421875 25.265625 0.953125 
Q 20.953125 3.328125 18.109375 8.203125 
z
M 48.6875 27.296875 
Q 48.6875 37.203125 44.609375 42.84375 
Q 40.53125 48.484375 33.40625 48.484375 
Q 26.265625 48.484375 22.1875 42.84375 
Q 18.109375 37.203125 18.109375 27.296875 
Q 18.109375 17.390625 22.1875 11.75 
Q 26.265625 6.109375 33.40625 6.109375 
Q 40.53125 6.109375 44.609375 11.75 
Q 48.6875 17.390625 48.6875 27.296875 
z
" id="DejaVuSans-112"/>
      <path d="M 37.109375 75.984375 
L 37.109375 68.5 
L 28.515625 68.5 
Q 23.6875 68.5 21.796875 66.546875 
Q 19.921875 64.59375 19.921875 59.515625 
L 19.921875 54.6875 
L 34.71875 54.6875 
L 34.71875 47.703125 
L 19.921875 47.703125 
L 19.921875 0 
L 10.890625 0 
L 10.890625 47.703125 
L 2.296875 47.703125 
L 2.296875 54.6875 
L 10.890625 54.6875 
L 10.890625 58.5 
Q 10.890625 67.625 15.140625 71.796875 
Q 19.390625 75.984375 28.609375 75.984375 
z
" id="DejaVuSans-102"/>
     </defs>
     <g transform="translate(184.860625 182.444838)scale(0.1 -0.1)">
      <use xlink:href="#DejaVuSans-67"/>
      <use x="69.824219" xlink:href="#DejaVuSans-111"/>
      <use x="131.005859" xlink:href="#DejaVuSans-109"/>
      <use x="228.417969" xlink:href="#DejaVuSans-98"/>
      <use x="291.894531" xlink:href="#DejaVuSans-105"/>
      <use x="319.677734" xlink:href="#DejaVuSans-110"/>
      <use x="383.056641" xlink:href="#DejaVuSans-101"/>
      <use x="444.580078" xlink:href="#DejaVuSans-100"/>
      <use x="508.056641" xlink:href="#DejaVuSans-32"/>
      <use x="539.84375" xlink:href="#DejaVuSans-114"/>
      <use x="580.925781" xlink:href="#DejaVuSans-101"/>
      <use x="642.449219" xlink:href="#DejaVuSans-115"/>
      <use x="694.548828" xlink:href="#DejaVuSans-105"/>
      <use x="722.332031" xlink:href="#DejaVuSans-108"/>
      <use x="750.115234" xlink:href="#DejaVuSans-105"/>
      <use x="777.898438" xlink:href="#DejaVuSans-101"/>
      <use x="839.421875" xlink:href="#DejaVuSans-110"/>
      <use x="902.800781" xlink:href="#DejaVuSans-99"/>
      <use x="957.78125" xlink:href="#DejaVuSans-101"/>
      <use x="1019.304688" xlink:href="#DejaVuSans-47"/>
      <use x="1052.996094" xlink:href="#DejaVuSans-112"/>
      <use x="1116.472656" xlink:href="#DejaVuSans-114"/>
      <use x="1157.554688" xlink:href="#DejaVuSans-111"/>
      <use x="1218.736328" xlink:href="#DejaVuSans-102"/>
      <use x="1253.941406" xlink:href="#DejaVuSans-105"/>
      <use x="1281.724609" xlink:href="#DejaVuSans-116"/>
      <use x="1320.933594" xlink:href="#DejaVuSans-45"/>
      <use x="1357.017578" xlink:href="#DejaVuSans-101"/>
      <use x="1418.541016" xlink:href="#DejaVuSans-113"/>
      <use x="1482.017578" xlink:href="#DejaVuSans-117"/>
      <use x="1545.396484" xlink:href="#DejaVuSans-105"/>
      <use x="1573.179688" xlink:href="#DejaVuSans-116"/>
      <use x="1612.388672" xlink:href="#DejaVuSans-121"/>
      <use x="1671.568359" xlink:href="#DejaVuSans-32"/>
      <use x="1703.355469" xlink:href="#DejaVuSans-97"/>
      <use x="1764.634766" xlink:href="#DejaVuSans-108"/>
      <use x="1792.417969" xlink:href="#DejaVuSans-105"/>
      <use x="1820.201172" xlink:href="#DejaVuSans-103"/>
      <use x="1883.677734" xlink:href="#DejaVuSans-110"/>
      <use x="1947.056641" xlink:href="#DejaVuSans-109"/>
      <use x="2044.46875" xlink:href="#DejaVuSans-101"/>
      <use x="2105.992188" xlink:href="#DejaVuSans-110"/>
      <use x="2169.371094" xlink:href="#DejaVuSans-116"/>
     </g>
    </g>
   </g>
  </g>
 </g>
 <defs>
  <clipPath id="p0c88c3c4ec">
   <rect height="262.7856" width="357.12" x="57.6" y="40.9536"/>
  </clipPath>
 </defs>
</svg>
